<?xml version="1.0" encoding="UTF-8" standalone="no"?>
<!-- Created with Vectornator (http://vectornator.io/) -->

<svg
   height="100%"
   stroke-miterlimit="10"
   style="fill-rule:nonzero;clip-rule:evenodd;stroke-linecap:round;stroke-linejoin:round;"
   version="1.1"
   viewBox="0 0 820 312"
   width="100%"
   xml:space="preserve"
   id="svg21"
   sodipodi:docname="nomeSECOMP_Branco2024.svg"
   inkscape:version="1.3.2 (091e20e, 2023-11-25, custom)"
   xmlns:inkscape="http://www.inkscape.org/namespaces/inkscape"
   xmlns:sodipodi="http://sodipodi.sourceforge.net/DTD/sodipodi-0.dtd"
   xmlns="http://www.w3.org/2000/svg"
   xmlns:svg="http://www.w3.org/2000/svg"
   xmlns:vectornator="http://vectornator.io"><sodipodi:namedview
   id="namedview21"
   pagecolor="#505050"
   bordercolor="#eeeeee"
   borderopacity="1"
   inkscape:showpageshadow="0"
   inkscape:pageopacity="0"
   inkscape:pagecheckerboard="0"
   inkscape:deskcolor="#505050"
   showguides="false"
   inkscape:zoom="1.1658537"
   inkscape:cx="356.3912"
   inkscape:cy="149.67573"
   inkscape:window-width="2560"
   inkscape:window-height="1369"
   inkscape:window-x="-8"
   inkscape:window-y="768"
   inkscape:window-maximized="1"
   inkscape:current-layer="g21"><sodipodi:guide
     position="400.56485,130.159"
     orientation="1,0"
     id="guide21"
     inkscape:locked="false" /></sodipodi:namedview>
<defs
   id="defs1" />
<path
   d="M 0,0 H 820 V 312 H 0 Z"
   fill="#ffffff"
   fill-rule="nonzero"
   opacity="1"
   stroke="none"
   vectornator:artboardBackground="true"
   id="path1"
   style="display:none" />
<g
   id="Camada-1"
   vectornator:layerName="Camada 1"
   transform="translate(-97.782427,-1.7154811)"
   style="fill:#ffffff">
<g
   opacity="1"
   vectornator:layerName="(curve)"
   id="g21"
   style="fill:#ffffff"
   transform="matrix(1.3197272,0,0,1.3197272,-149.19956,-87.44545)">
<path
   d="m 306.373,117.589 0.738,0.341 c 0,0.409 0.098,0.773 0.295,1.091 0.344,0.546 1.02,1.08 2.028,1.603 1.008,0.523 2.163,0.989 3.466,1.398 1.303,0.409 2.667,0.739 4.093,0.989 1.426,0.25 2.704,0.375 3.835,0.375 0.836,0 1.918,-0.057 3.245,-0.17 1.328,-0.114 2.63,-0.353 3.909,-0.716 1.278,-0.364 2.384,-0.864 3.318,-1.501 0.935,-0.637 1.402,-1.478 1.402,-2.524 0,-1.045 -0.43,-1.818 -1.291,-2.318 -0.86,-0.501 -1.991,-0.864 -3.392,-1.092 -1.402,-0.227 -3,-0.375 -4.794,-0.443 -1.795,-0.068 -3.626,-0.171 -5.494,-0.307 -1.869,-0.136 -3.7,-0.364 -5.495,-0.682 -1.794,-0.318 -3.392,-0.853 -4.793,-1.603 -1.402,-0.75 -2.532,-1.773 -3.393,-3.069 -0.86,-1.296 -1.29,-2.99 -1.29,-5.081 0,-1.41 0.356,-2.797 1.069,-4.1607 0.713,-1.364 1.807,-2.569 3.282,-3.6148 1.475,-1.0458 3.343,-1.8983 5.605,-2.5576 2.261,-0.6593 4.916,-0.989 7.965,-0.989 2.605,0 4.867,0.1819 6.785,0.5456 1.917,0.3638 3.576,0.7503 4.978,1.1595 1.401,0.4092 2.581,0.7957 3.54,1.1595 0.958,0.3637 1.757,0.5456 2.396,0.5456 0.689,0 1.18,-0.1364 1.475,-0.4092 l 0.885,0.5456 -5.088,8.5255 -0.738,-0.273 c -0.098,-0.636 -0.295,-1.159 -0.59,-1.568 -0.393,-0.546 -1.045,-1.08 -1.954,-1.603 -0.91,-0.523 -1.979,-0.989 -3.208,-1.3985 -1.229,-0.4092 -2.557,-0.7388 -3.983,-0.9889 -1.426,-0.2501 -2.851,-0.3751 -4.277,-0.3751 -1.082,0 -2.2,0.0795 -3.356,0.2387 -1.155,0.1591 -2.2,0.3978 -3.134,0.7161 -0.934,0.3183 -1.709,0.7387 -2.323,1.2617 -0.615,0.523 -0.922,1.171 -0.922,1.944 0,1.091 0.43,1.91 1.291,2.455 0.86,0.546 1.991,0.955 3.392,1.228 1.401,0.273 2.999,0.455 4.794,0.546 1.794,0.091 3.626,0.204 5.494,0.341 1.868,0.136 3.7,0.375 5.494,0.716 1.795,0.341 3.393,0.886 4.794,1.637 1.401,0.75 2.532,1.762 3.393,3.035 0.86,1.273 1.29,2.932 1.29,4.979 0,2.364 -0.676,4.296 -2.028,5.797 -1.352,1.5 -3.036,2.683 -5.052,3.547 -2.016,0.863 -4.191,1.443 -6.527,1.739 -2.335,0.295 -4.511,0.443 -6.526,0.443 -2.803,0 -5.151,-0.148 -7.043,-0.443 -1.893,-0.296 -3.467,-0.66 -4.72,-1.091 -1.254,-0.432 -2.25,-0.819 -2.987,-1.16 -0.738,-0.341 -1.377,-0.511 -1.918,-0.511 -0.344,0 -0.664,0.181 -0.959,0.545 l -1.032,-0.545 z"
   fill="#b5cca1"
   fill-rule="nonzero"
   opacity="1"
   stroke="#1f5f13"
   stroke-linecap="round"
   stroke-linejoin="round"
   stroke-width="0.2"
   id="path2"
   style="fill:#ffffff;stroke:#ffffff" />
<path
   d="m 397.724,100.333 c 0,-0.5 -0.209,-0.8751 -0.627,-1.1252 -0.418,-0.2501 -1.143,-0.3751 -2.175,-0.3751 h -23.895 v 8.4573 h 14.455 c 0.983,0 1.745,-0.125 2.286,-0.375 0.541,-0.25 0.811,-0.898 0.811,-1.944 h 1.328 v 10.64 h -1.328 c 0,-1.046 -0.27,-1.717 -0.811,-2.012 -0.541,-0.296 -1.303,-0.443 -2.286,-0.443 h -14.455 v 9.412 h 24.632 c 0.738,0 1.34,-0.159 1.807,-0.478 0.467,-0.318 0.701,-0.75 0.701,-1.296 h 1.327 v 9.344 h -1.327 c 0,-0.682 -0.234,-1.068 -0.701,-1.159 -0.467,-0.091 -1.069,-0.137 -1.807,-0.137 h -34.367 v -1.227 c 0.344,0 0.651,-0.102 0.922,-0.307 0.27,-0.205 0.405,-0.512 0.405,-0.921 V 95.4225 c 0,-0.4092 -0.135,-0.7162 -0.405,-0.9208 -0.271,-0.2046 -0.578,-0.3069 -0.922,-0.3069 v -1.2277 h 33.63 c 1.032,0 1.757,-0.1477 2.175,-0.4433 0.418,-0.2955 0.627,-0.6934 0.627,-1.1936 h 1.327 v 9.0028 z"
   fill="#b5cca1"
   fill-rule="nonzero"
   opacity="1"
   stroke="#1f5f13"
   stroke-linecap="round"
   stroke-linejoin="round"
   stroke-width="0.2"
   id="path3"
   style="fill:#ffffff;stroke:#ffffff" />
<path
   d="m 419.234,127.615 c 0.394,0 0.738,-0.102 1.033,-0.307 0.295,-0.205 0.442,-0.512 0.442,-0.921 V 95.2861 c 0,-0.4092 -0.147,-0.6934 -0.442,-0.8526 -0.295,-0.1591 -0.639,-0.2387 -1.033,-0.2387 v -1.2277 h 13.791 v 1.2277 c -0.245,0 -0.504,0.0682 -0.774,0.2046 -0.27,0.1364 -0.406,0.341 -0.406,0.6139 0,0.2273 0.099,0.5229 0.295,0.8866 0.197,0.3638 0.418,0.7503 0.664,1.1595 l 10.546,17.7326 10.62,-17.528 c 0.344,-0.5911 0.602,-1.0572 0.775,-1.3982 0.172,-0.341 0.258,-0.6479 0.258,-0.9207 0,-0.5002 -0.32,-0.7503 -0.959,-0.7503 v -1.2277 h 13.644 v 1.2277 c -0.394,0 -0.738,0.0796 -1.033,0.2387 -0.295,0.1592 -0.442,0.4434 -0.442,0.8526 v 31.1009 c 0,0.409 0.147,0.716 0.442,0.921 0.295,0.205 0.639,0.307 1.033,0.307 v 1.227 h -11.579 v -1.227 c 1.327,0 1.991,-0.409 1.991,-1.228 v -22.644 h -0.147 l -14.824,25.099 h -0.221 l -14.529,-25.167 h -0.147 v 22.712 c 0,0.819 0.688,1.228 2.065,1.228 v 1.227 h -11.063 z"
   fill="#b5cca1"
   fill-rule="nonzero"
   opacity="1"
   stroke="#1f5f13"
   stroke-linecap="round"
   stroke-linejoin="round"
   stroke-width="0.2"
   id="path4"
   style="fill:#ffffff;stroke:#ffffff" />
<path
   d="m 512.134,114.929 -6.195,-12.686 -6.933,12.686 z m -27.804,12.686 c 0.639,-0.091 1.143,-0.387 1.512,-0.887 0.369,-0.5 0.725,-1.068 1.069,-1.705 l 13.644,-26.5313 c 0.344,-0.5911 0.652,-1.1368 0.922,-1.6369 0.27,-0.5002 0.406,-0.9321 0.406,-1.2959 0,-0.4547 -0.172,-0.773 -0.517,-0.9549 -0.344,-0.1818 -0.713,-0.3182 -1.106,-0.4092 v -1.2277 h 12.464 v 1.2277 c -0.344,0.091 -0.689,0.216 -1.033,0.3751 -0.344,0.1592 -0.516,0.4888 -0.516,0.989 0,0.3638 0.086,0.7275 0.258,1.0913 0.172,0.3637 0.43,0.8412 0.774,1.4323 l 15.34,27.7595 c 0.246,0.5 0.578,0.863 0.996,1.091 0.418,0.227 0.897,0.454 1.438,0.682 v 1.227 h -12.98 v -1.227 c 0.197,0 0.443,-0.068 0.738,-0.205 0.295,-0.136 0.442,-0.341 0.442,-0.614 0,-0.454 -0.196,-1.045 -0.59,-1.773 l -2.802,-5.047 h -17.995 l -2.655,4.842 c -0.492,0.955 -0.738,1.637 -0.738,2.047 0,0.5 0.468,0.75 1.402,0.75 v 1.227 H 484.33 Z"
   fill="#b5cca1"
   fill-rule="nonzero"
   opacity="1"
   stroke="#1f5f13"
   stroke-linecap="round"
   stroke-linejoin="round"
   stroke-width="0.2"
   id="path5"
   style="fill:#ffffff;stroke:#ffffff" />
<path
   d="m 547.288,127.615 c 0.934,0 1.401,-0.409 1.401,-1.228 V 95.4225 c 0,-0.8185 -0.467,-1.2277 -1.401,-1.2277 v -1.2277 l 12.611,1e-4 v 1.2276 c -0.394,0 -0.59,0.2274 -0.59,0.6821 0,0.3637 0.491,1.0003 1.475,1.9097 L 581.95,117.111 V 95.4225 c 0,-0.8185 -0.639,-1.2277 -1.918,-1.2277 v -1.2276 h 11.136 v 1.2276 c -0.934,0 -1.401,0.4093 -1.401,1.2277 v 30.9645 c 0,0.819 0.467,1.228 1.401,1.228 v 1.228 h -11.947 v -1.228 c 0.639,0 0.959,-0.205 0.959,-0.614 0,-0.318 -0.394,-0.841 -1.18,-1.569 l -22.494,-21.689 v 22.644 c 0,0.819 0.566,1.228 1.696,1.228 v 1.228 h -10.914 z"
   fill="#b5cca1"
   fill-rule="nonzero"
   opacity="1"
   stroke="#1f5f13"
   stroke-linecap="round"
   stroke-linejoin="round"
   stroke-width="0.2"
   id="path6"
   style="fill:#ffffff;stroke:#ffffff" />
<path
   d="m 635.91,114.929 -6.195,-12.686 -6.933,12.686 z m -27.804,12.686 c 0.639,-0.091 1.143,-0.387 1.512,-0.887 0.369,-0.5 0.725,-1.068 1.069,-1.705 l 13.644,-26.5313 c 0.344,-0.5911 0.651,-1.1367 0.922,-1.6369 0.27,-0.5002 0.405,-0.9321 0.405,-1.2959 0,-0.4547 -0.172,-0.773 -0.516,-0.9548 -0.344,-0.1819 -0.713,-0.3183 -1.106,-0.4093 V 92.9672 H 636.5 v 1.2276 c -0.345,0.091 -0.689,0.216 -1.033,0.3752 -0.344,0.1591 -0.516,0.4887 -0.516,0.9889 0,0.3638 0.086,0.7275 0.258,1.0913 0.172,0.3637 0.43,0.8412 0.774,1.4323 l 15.34,27.7595 c 0.246,0.5 0.578,0.863 0.996,1.091 0.418,0.227 0.897,0.454 1.438,0.682 v 1.228 h -12.98 v -1.228 c 0.197,0 0.443,-0.068 0.738,-0.205 0.295,-0.136 0.442,-0.341 0.442,-0.614 0,-0.454 -0.197,-1.045 -0.59,-1.773 l -2.802,-5.047 H 620.57 l -2.655,4.842 c -0.492,0.955 -0.738,1.637 -0.738,2.047 0,0.5 0.467,0.75 1.402,0.75 v 1.228 h -10.473 z"
   fill="#b5cca1"
   fill-rule="nonzero"
   opacity="1"
   stroke="#1f5f13"
   stroke-linecap="round"
   stroke-linejoin="round"
   stroke-width="0.2"
   id="path7"
   style="fill:#ffffff;stroke:#ffffff" />
<path
   d="m 722.442,122.977 c 2.311,0 4.327,-0.182 6.048,-0.546 1.72,-0.363 3.146,-1.011 4.277,-1.943 1.131,-0.933 1.979,-2.172 2.544,-3.718 0.566,-1.546 0.849,-3.501 0.849,-5.865 0,-2.365 -0.283,-4.32 -0.849,-5.866 -0.565,-1.546 -1.413,-2.785 -2.544,-3.717 -1.131,-0.932 -2.557,-1.5799 -4.277,-1.9437 -1.721,-0.3637 -3.737,-0.5456 -6.048,-0.5456 h -11.431 v 24.1443 z m 2.95,-30.0098 c 2.704,0 5.224,0.3637 7.559,1.0912 2.336,0.7275 4.364,1.8302 6.085,3.3079 1.721,1.4778 3.073,3.3417 4.056,5.5927 0.983,2.251 1.475,4.899 1.475,7.946 0,3.046 -0.492,5.695 -1.475,7.946 -0.983,2.25 -2.335,4.115 -4.056,5.592 -1.721,1.478 -3.749,2.581 -6.085,3.308 -2.335,0.728 -4.855,1.092 -7.559,1.092 h -24.485 v -1.228 c 1.131,0 1.697,-0.409 1.697,-1.228 V 95.4225 c 0,-0.8184 -0.566,-1.2277 -1.697,-1.2277 v -1.2276 z"
   fill="#b5cca1"
   fill-rule="nonzero"
   opacity="1"
   stroke="#1f5f13"
   stroke-linecap="round"
   stroke-linejoin="round"
   stroke-width="0.2"
   id="path8"
   style="fill:#ffffff;stroke:#ffffff" />
<path
   d="m 786.653,114.929 -6.195,-12.686 -6.932,12.686 z m -27.803,12.686 c 0.639,-0.091 1.143,-0.387 1.512,-0.887 0.368,-0.5 0.725,-1.068 1.069,-1.705 l 13.644,-26.5313 c 0.344,-0.5911 0.651,-1.1367 0.921,-1.6369 0.271,-0.5002 0.406,-0.9321 0.406,-1.2959 0,-0.4547 -0.172,-0.773 -0.516,-0.9548 -0.344,-0.1819 -0.713,-0.3183 -1.106,-0.4093 v -1.2276 h 12.463 v 1.2276 c -0.344,0.091 -0.688,0.216 -1.032,0.3752 -0.344,0.1591 -0.517,0.4888 -0.517,0.9889 0,0.3638 0.087,0.7275 0.259,1.0913 0.172,0.3637 0.43,0.8412 0.774,1.4323 l 15.34,27.7595 c 0.246,0.5 0.578,0.863 0.995,1.091 0.418,0.227 0.898,0.454 1.439,0.682 v 1.228 h -12.98 v -1.228 c 0.196,0 0.442,-0.068 0.737,-0.205 0.295,-0.136 0.443,-0.341 0.443,-0.614 0,-0.454 -0.197,-1.045 -0.59,-1.773 l -2.803,-5.047 h -17.995 l -2.655,4.842 c -0.491,0.955 -0.737,1.637 -0.737,2.047 0,0.5 0.467,0.75 1.401,0.75 v 1.228 H 758.85 Z"
   fill="#b5cca1"
   fill-rule="nonzero"
   opacity="1"
   stroke="#1f5f13"
   stroke-linecap="round"
   stroke-linejoin="round"
   stroke-width="0.2"
   id="path9"
   style="fill:#ffffff;stroke:#ffffff" />
<path
   d="m 333.005,159.428 h -21.51 v 53.047 h 21.51 z m -28.68,-6.631 h 35.85 v 6.631 h 7.17 v 53.047 h -7.17 v 6.631 h -35.85 v -6.631 h -7.17 v -53.047 h 7.17 z"
   fill="#1f5f13"
   fill-rule="nonzero"
   opacity="1"
   stroke="#81bde3"
   stroke-linecap="round"
   stroke-linejoin="round"
   stroke-width="0.2"
   id="path10"
   style="fill:#ffffff;stroke:#ffffff" />
<path
   d="m 354.515,152.797 h 7.17 v 6.631 h 7.17 v 6.631 h 7.17 v 6.631 h 7.17 v -6.631 h 7.17 v -6.631 h 7.171 v -6.631 h 7.17 v 66.309 h -14.341 v -33.155 h -7.17 v 6.631 h -7.17 v -6.631 h -7.17 v 33.155 h -14.34 z"
   fill="#1f5f13"
   fill-rule="nonzero"
   opacity="1"
   stroke="none"
   stroke-linecap="round"
   stroke-linejoin="round"
   stroke-width="0.2"
   id="path11"
   style="fill:#ffffff;stroke:#ffffff" />
<path
   d="m 447.726,159.428 h -14.34 v 26.523 h 14.34 z m -35.85,-6.631 h 43.02 v 6.631 h 7.17 v 26.523 h -7.17 v 6.631 h -21.51 v 19.893 h 7.17 v 6.631 h -28.68 v -6.631 h 7.17 v -53.047 h -7.17 z"
   fill="#1f5f13"
   fill-rule="nonzero"
   opacity="1"
   stroke="#81bde3"
   stroke-linecap="round"
   stroke-linejoin="round"
   stroke-width="0.2"
   id="path12"
   style="fill:#ffffff;stroke:#ffffff" />
<path
   d="m 469.236,152.797 h 14.34 v 59.678 h 21.511 v -59.678 h 14.34 v 59.678 h -7.17 v 6.631 h -35.851 v -6.631 h -7.17 z"
   fill="#1f5f13"
   fill-rule="nonzero"
   opacity="1"
   stroke="#81bde3"
   stroke-linecap="round"
   stroke-linejoin="round"
   stroke-width="0.2"
   id="path13"
   style="fill:#ffffff;stroke:#ffffff" />
<path
   d="m 533.767,152.797 h 43.02 v 19.893 h -7.17 v -6.631 h -7.17 v 46.416 h 7.17 v 6.631 h -28.68 v -6.631 h 7.17 v -46.416 h -7.17 v 6.631 h -7.17 z"
   fill="#1f5f13"
   fill-rule="nonzero"
   opacity="1"
   stroke="#81bde3"
   stroke-linecap="round"
   stroke-linejoin="round"
   stroke-width="0.2"
   id="path14"
   style="fill:#ffffff;stroke:#ffffff" />
<path
   d="m 612.638,159.428 h -7.17 v 6.631 h -7.17 v 19.892 h 21.51 v -19.892 h -7.17 z m -14.34,-6.631 h 21.51 v 6.631 h 7.17 v 6.631 h 7.17 v 53.047 h -14.34 v -26.524 h -21.51 l -10e-4,26.524 h -14.34 v -53.047 h 7.17 v -6.631 h 7.171 z"
   fill="#1f5f13"
   fill-rule="nonzero"
   opacity="1"
   stroke="#81bde3"
   stroke-linecap="round"
   stroke-linejoin="round"
   stroke-width="0.2"
   id="path15"
   style="fill:#ffffff;stroke:#ffffff" />
<path
   d="m 648.488,152.797 h 35.85 v 6.631 h 7.17 v 13.262 h -14.34 v -13.262 h -21.51 v 53.047 h 21.51 v -13.262 h 14.34 v 13.262 h -7.17 v 6.631 h -14.34 v 6.631 h -7.17 v -6.631 h -14.34 v -6.631 h -7.17 v -53.047 h 7.17 z m 21.51,72.94 h 7.17 v 6.631 h -7.17 z m -21.51,6.631 h 21.51 v 6.631 h -21.51 z"
   fill="#1f5f13"
   fill-rule="nonzero"
   opacity="1"
   stroke="#81bde3"
   stroke-linecap="round"
   stroke-linejoin="round"
   stroke-width="0.2"
   id="path16"
   style="fill:#ffffff;stroke:#ffffff" />
<path
   d="m 705.849,139.535 h 21.51 v 6.631 h 7.17 v -6.631 h 14.34 v 6.631 h -7.17 v 6.631 h -21.51 v -6.631 h -7.17 v 6.631 h -14.341 v -6.631 h 7.171 z m 21.51,26.524 h -7.17 v 6.631 h -7.17 v 13.261 h 21.51 V 172.69 h -7.17 z m -14.34,-6.631 h 21.51 v 6.631 h 7.17 v 6.631 h 7.17 v 46.416 h -14.34 v -26.524 h -21.51 v 26.524 H 698.678 V 172.69 h 7.171 v -6.631 h 7.17 z"
   fill="#1f5f13"
   fill-rule="nonzero"
   opacity="1"
   stroke="#81bde3"
   stroke-linecap="round"
   stroke-linejoin="round"
   stroke-width="0.2"
   id="path17"
   style="fill:#ffffff;stroke:#ffffff" />
<path
   d="m 791.889,159.428 h -21.51 v 53.047 h 21.51 z m -28.68,-6.631 h 35.85 v 6.631 h 7.171 v 53.047 h -7.171 v 6.631 h -35.85 v -6.631 h -7.17 v -53.047 h 7.17 z"
   fill="#1f5f13"
   fill-rule="nonzero"
   opacity="1"
   stroke="#81bde3"
   stroke-linecap="round"
   stroke-linejoin="round"
   stroke-width="0.2"
   id="path18"
   style="fill:#ffffff;stroke:#ffffff" />
<path
   d="m 203.743,86.2628 h 71.7 v 13.2619 h 14.341 V 126.049 H 261.103 V 99.5247 h -43.02 V 205.62 h 43.02 v -26.524 h 28.681 v 26.524 h -14.341 v 13.262 h -71.7 V 205.62 h -14.34 V 99.5247 h 14.34 z"
   fill="#1f5f13"
   fill-rule="nonzero"
   opacity="1"
   stroke="#81bde3"
   stroke-linecap="round"
   stroke-linejoin="round"
   stroke-width="0.2"
   id="path19"
   style="fill:#ffffff;stroke:#ffffff" />
<path
   d="M 28.1106,86.2628 H 99.8113 V 99.5247 H 114.151 V 126.049 H 99.8113 V 139.31 H 85.4712 v 13.262 H 71.131 v 13.262 H 56.7909 v 13.262 H 42.4507 v 26.524 h 43.0205 v -13.262 h 28.6798 v 26.524 H 13.7705 V 179.096 H 28.1106 V 165.834 H 42.4507 V 152.572 H 56.7909 V 139.31 H 71.131 V 126.049 H 85.4712 V 99.5247 H 42.4507 V 112.787 H 13.7705 V 99.5247 h 14.3401 z"
   fill="#1f5f13"
   fill-rule="nonzero"
   opacity="1"
   stroke="#81bde3"
   stroke-linecap="round"
   stroke-linejoin="round"
   stroke-width="0.2"
   id="path20"
   style="display:none;fill:#ffffff" />
<path
   d="m 108.217,73.0009 h 43.021 v 13.2619 h 14.34 v 39.7862 h 14.34 v 13.261 h -28.68 v -13.261 h -14.34 v -13.262 h -14.341 v 13.262 h 14.341 V 139.31 H 108.217 V 126.049 H 93.8771 V 112.787 H 108.217 V 99.5247 h 28.681 V 86.2628 H 108.217 Z M 93.8771,152.572 h 86.0409 v 13.262 H 93.8771 Z"
   fill="#1f5f13"
   fill-rule="nonzero"
   opacity="1"
   stroke="#81bde3"
   stroke-linecap="round"
   stroke-linejoin="round"
   stroke-width="0.2"
   id="path21"
   style="display:none;fill:#ffffff" /><path
   id="_2024"
   data-name="2024"
   class="cls-1"
   d="m 437.48412,239.57595 h -27.81956 v 7.94798 h -7.94797 v 7.94797 h 11.92363 v -7.94797 h 19.86825 v 15.89594 h -7.94798 v 7.94796 h -7.94797 v 7.94797 h -7.94796 v 7.94797 h -7.94797 v 7.94798 h 43.71551 v -7.94798 h -23.84393 v -7.94797 h 7.94797 v -7.94797 h 7.94797 v -7.94796 h 7.94796 v -15.89594 h -7.94796 z m 51.66012,0 h -27.81621 v 7.94798 h -7.94798 v 39.73984 h 7.94798 v 7.94798 h 27.81621 v -7.94798 h 7.94797 v -39.73984 h -7.94797 z m -3.97231,47.68782 h -19.87159 v -39.73984 h 19.87159 z m 55.63578,-47.68782 h -27.81957 v 7.94798 h -7.94797 v 7.94797 h 11.92363 v -7.94797 h 19.86824 v 15.89594 h -7.94795 v 7.94796 h -7.948 v 7.94797 h -7.94797 v 7.94797 h -7.94796 v 7.94798 h 43.71551 v -7.94798 h -23.84393 v -7.94797 h 7.94798 v -7.94797 h 7.94799 v -7.94796 h 7.94796 v -15.89594 h -7.94796 z m 51.66012,0 h -11.92028 v 7.94798 h -7.948 v 7.94797 h -7.94797 v 7.94797 h -7.94796 v 15.89593 h 23.8439 v 15.89595 H 592.4678 V 279.3158 h 7.948 v -7.94797 h -7.948 z m -23.84391,31.79188 v -7.94796 h 7.94796 v -7.94797 h 3.97567 v 15.89593 z"
   style="clip-rule:evenodd;fill:#ffffff;fill-rule:evenodd;stroke-width:0.334651;stroke-linecap:round;stroke-linejoin:round" />
</g>
</g>
</svg>
